<svg width="1440" height="600" viewBox="0 0 1440 600" fill="none" xmlns="http://www.w3.org/2000/svg">
<g clip-path="url(#clip0_155_296)">
<rect width="1440" height="600" fill="#00225D"/>
<path d="M1994.8 329.32V75H1893.04V329.32H1869.28V278.511H1854.03V159.727L1684.42 75V159.727H1648.85V278.511H1633.61V159.727H1616.71V125.809H1614.93L1542 75L1479.24 125.809V159.727H1462.34V329.32H1442.02V285.24H1431.86V142.837L1397.93 75L1364.01 142.837V285.24H1353.85V329.32H1336.82V75H1252.08V278.511H1236.84V75H1160.48V159.727H1090.98V278.511H1045.25V159.727L875.637 75V278.511H824.685V159.727H807.792V125.809H773.87V159.727H756.84V125.809H723.055V159.727H655.209V329.32H638.18V278.511H621.287V125.809L548.36 75L485.597 125.809V150.39L451.674 133.499V75H282.062V159.727H266.818V125.809H232.895V159.727H216.003V125.809H182.08V159.727H112.587V329.32H97.2051V159.727L80.3125 144.485V125.809L7.38604 75L-55.3774 125.809V278.511H-72.27H-74.0554V329.32H-89.3V75H-258.912V278.511H-284.32V75H-386.087V278.511H-428.388V159.727L-513.262 75V278.511H-598V875H2038.89V329.32H1994.8Z" fill="#001949"/>
<path d="M0 473H1440V684H0V473Z" fill="#00225D"/>
<path d="M20 473L29.4512 446.954C30.4186 444.349 32.9488 442.563 35.7023 442.563H87.1256L84.6698 445.316C84.0744 445.763 83.7023 446.358 83.4046 447.103L74.0279 473" stroke="white" stroke-width="2" stroke-miterlimit="10" stroke-linecap="round" stroke-linejoin="round"/>
<path d="M64.2721 472L55 443H109.728L119 471.83" stroke="white" stroke-width="2" stroke-miterlimit="10" stroke-linecap="round" stroke-linejoin="round"/>
<path d="M59.2931 420.609L55.1256 442.489H110.865L114.884 421.13C115.033 420.386 115.33 419.716 115.851 419.195L117.563 417.409L63.3117 417.261C61.3768 417.261 59.6651 418.675 59.2931 420.609Z" stroke="white" stroke-width="2" stroke-miterlimit="10" stroke-linecap="round" stroke-linejoin="round"/>
<path d="M58.4 425.074H107.442" stroke="white" stroke-width="2" stroke-miterlimit="10" stroke-linecap="round" stroke-linejoin="round"/>
<path d="M58.4 432.665H105.656" stroke="white" stroke-width="2" stroke-miterlimit="10" stroke-linecap="round" stroke-linejoin="round"/>
<path d="M184.54 316.423C186.177 316.126 187.889 315.902 189.6 315.902C200.912 315.902 210.512 323.419 213.712 333.688" stroke="white" stroke-width="2" stroke-miterlimit="10" stroke-linecap="round" stroke-linejoin="round"/>
<path d="M162.809 384.74C165.488 384.07 168.019 382.805 170.177 381.093C174.642 383.772 179.851 385.335 185.433 385.335C196 385.335 205.302 379.754 210.437 371.344C219.591 369.707 226.512 361.744 226.512 352.07C226.512 343.661 221.154 336.442 213.712 333.688" stroke="white" stroke-width="2" stroke-miterlimit="10" stroke-linecap="round" stroke-linejoin="round"/>
<path d="M184.539 316.423C180.372 314.265 175.684 313 170.698 313C162.437 313 155.07 316.423 149.712 321.856C148.074 321.484 146.288 321.335 144.502 321.335C135.721 321.335 128.056 325.8 123.516 332.572C123.293 332.572 122.995 332.572 122.772 332.572C111.981 332.572 103.2 341.353 103.2 352.144C103.2 360.33 108.26 367.4 115.479 370.302C117.488 378.935 125.228 385.409 134.53 385.409C138.921 385.409 143.014 383.921 146.288 381.465C148.819 383.326 151.721 384.591 154.995 385.112" stroke="white" stroke-width="2" stroke-miterlimit="10" stroke-linecap="round" stroke-linejoin="round"/>
<path d="M184.54 316.423C189.823 319.251 194.14 323.642 196.893 329C199.275 329.967 201.433 331.307 203.442 332.87C204.558 332.646 205.749 332.572 206.94 332.572C209.321 332.572 211.554 333.019 213.637 333.763" stroke="white" stroke-width="2" stroke-miterlimit="10" stroke-linecap="round" stroke-linejoin="round"/>
<path d="M162.809 384.74C161.098 391.363 160.056 399.4 160.056 409.149C160.056 465.335 164.819 472.033 164.819 472.033" stroke="white" stroke-width="2" stroke-miterlimit="10" stroke-linecap="round" stroke-linejoin="round"/>
<path d="M194.363 353.93C194.363 353.93 170.995 353.26 162.809 384.739" stroke="white" stroke-width="2" stroke-miterlimit="10" stroke-linecap="round" stroke-linejoin="round"/>
<path d="M154.921 385.112C154.921 387.195 154.698 389.502 154.326 392.033C150.53 418.674 146.735 473 146.735 473" stroke="white" stroke-width="2" stroke-miterlimit="10" stroke-linecap="round" stroke-linejoin="round"/>
<path d="M154.921 385.112C155.219 365.391 141.972 365.391 141.972 365.391" stroke="white" stroke-width="2" stroke-miterlimit="10" stroke-linecap="round" stroke-linejoin="round"/>
<path d="M153.433 349.167C167.721 352.963 170.772 367.251 170.772 367.251" stroke="white" stroke-width="2" stroke-miterlimit="10" stroke-linecap="round" stroke-linejoin="round"/>
<path d="M67.2559 358.632C56.4231 360.867 48.2791 370.459 48.2791 381.954C48.2791 383.48 48.4227 384.973 48.697 386.419" stroke="white" stroke-width="2" stroke-linecap="round" stroke-linejoin="round"/>
<path d="M65.0232 347.692C49.0952 350.962 37.1162 365.059 37.1162 381.954C37.1162 384.114 37.312 386.228 37.6867 388.28" stroke="white" stroke-width="2" stroke-linecap="round" stroke-linejoin="round"/>
<path d="M62.4186 336.07C41.1671 340.528 25.2093 359.377 25.2093 381.954C25.2093 385.139 25.5269 388.25 26.1321 391.256" stroke="white" stroke-width="2" stroke-linecap="round" stroke-linejoin="round"/>
<path d="M1022.35 473H1066.66" stroke="white" stroke-width="2" stroke-linecap="round" stroke-linejoin="round"/>
<path d="M644 473H688.304" stroke="white" stroke-width="2" stroke-linecap="round" stroke-linejoin="round"/>
<path d="M1017.04 251.481H846.025V473H1017.04V251.481Z" fill="#001949" stroke="white" stroke-width="2" stroke-linecap="round" stroke-linejoin="round"/>
<path d="M846.025 295.785H668.81V473H846.025V295.785Z" fill="#001949" stroke="white" stroke-width="2" stroke-linecap="round" stroke-linejoin="round"/>
<path d="M1061.34 473H1017.04V251.481L1061.34 286.924V473Z" fill="#001949" stroke="white" stroke-width="2" stroke-linecap="round" stroke-linejoin="round"/>
<path d="M837.165 384.392H792.861V473H837.165V384.392Z" fill="#001949" stroke="white" stroke-width="2" stroke-linecap="round" stroke-linejoin="round"/>
<path d="M856.658 347.177H1006.41" stroke="white" stroke-width="2" stroke-linecap="round" stroke-linejoin="round"/>
<path d="M1027.67 330.342H1065.77" stroke="white" stroke-width="2" stroke-linecap="round" stroke-linejoin="round"/>
<path d="M1027.67 337.43H1065.77" stroke="white" stroke-width="2" stroke-linecap="round" stroke-linejoin="round"/>
<path d="M836.279 384.392H668.81" stroke="white" stroke-width="2" stroke-linecap="round" stroke-linejoin="round"/>
<path d="M792.861 457.937L668.81 457.937" stroke="white" stroke-width="2" stroke-linecap="round" stroke-linejoin="round"/>
<path d="M837.165 392.367H668.81" stroke="white" stroke-width="2" stroke-linecap="round" stroke-linejoin="round"/>
<path d="M658.177 387.937H651.089V473H658.177V387.937Z" fill="#001949" stroke="white" stroke-width="2" stroke-linecap="round" stroke-linejoin="round"/>
<path d="M654.633 387.937V380.228C654.633 371.279 661.899 364.013 670.848 364.013H674.127H711.342" stroke="white" stroke-width="2" stroke-linecap="round" stroke-linejoin="round"/>
<path d="M694.063 364.013H722.418C726.316 364.013 729.506 367.203 729.506 371.101H706.911C704.342 371.101 701.861 370.215 699.911 368.62L694.063 364.013Z" fill="#001949" stroke="white" stroke-width="2" stroke-linecap="round" stroke-linejoin="round"/>
<path d="M1048.05 387.937H1040.96V473H1048.05V387.937Z" fill="#001949" stroke="white" stroke-width="2" stroke-linecap="round" stroke-linejoin="round"/>
<path d="M1044.51 387.494V380.228C1044.51 371.279 1037.24 364.013 1028.29 364.013H1025.01H994.443" stroke="white" stroke-width="2" stroke-linecap="round" stroke-linejoin="round"/>
<path d="M1005.96 364.013H977.608C973.709 364.013 970.519 367.203 970.519 371.101H993.114C995.684 371.101 998.165 370.215 1000.11 368.62L1005.96 364.013Z" fill="#001949" stroke="white" stroke-width="2" stroke-linecap="round" stroke-linejoin="round"/>
<path d="M1028.56 295.785H833.62V340.089H1028.56V295.785Z" fill="#001949" stroke="white" stroke-width="2" stroke-linecap="round" stroke-linejoin="round"/>
<path fill-rule="evenodd" clip-rule="evenodd" d="M892.307 309.076H899.932C901.992 309.076 903.435 309.694 904.465 310.724C905.289 311.549 905.702 312.373 905.702 313.609C905.702 314.227 905.702 314.64 905.495 315.052C905.289 315.464 905.083 315.876 904.877 316.082C904.671 316.288 904.465 316.7 904.053 316.906C903.847 317.112 903.435 317.318 903.229 317.524C903.641 317.73 904.259 317.937 904.671 318.143C905.083 318.349 905.495 318.761 905.702 318.967C905.908 319.379 906.32 319.791 906.32 320.203C906.526 320.615 906.526 321.234 906.526 321.852C906.526 322.676 906.32 323.294 906.114 323.912C905.908 324.531 905.289 324.943 904.877 325.355C904.259 325.767 903.641 325.973 902.817 326.179C901.992 326.385 901.168 326.591 900.138 326.591H892.101V309.076H892.307ZM899.314 316.288C900.344 316.288 901.168 316.082 901.58 315.67C902.198 315.258 902.405 314.64 902.405 313.815C902.405 313.197 902.198 312.579 901.58 312.167C900.962 311.755 900.344 311.549 899.314 311.549H894.986V316.288H899.314ZM900.344 323.706C901.374 323.706 902.198 323.5 902.817 323.088C903.435 322.676 903.641 322.058 903.641 321.234C903.641 320.409 903.435 319.997 902.817 319.585C902.198 319.173 901.374 318.967 900.138 318.967H895.398V323.706H900.344Z" fill="white"/>
<path fill-rule="evenodd" clip-rule="evenodd" d="M917.241 309.076H919.92L927.338 326.591H924.247L922.599 322.47H914.562L912.914 326.591H909.823L917.241 309.076ZM921.362 319.585L918.478 312.579L915.593 319.585H921.362Z" fill="white"/>
<path fill-rule="evenodd" clip-rule="evenodd" d="M932.078 309.076H935.375L946.09 321.234V309.076H949.593V326.591H946.708L935.581 314.227V326.591H932.078V309.076Z" fill="white"/>
<path fill-rule="evenodd" clip-rule="evenodd" d="M952.89 309.076H956.393V317.937L965.872 309.076H970.2L961.957 316.494L970.612 326.385H966.49L959.69 318.555L956.599 321.44V326.591H953.096V309.076H952.89Z" fill="white"/>
<path d="M826.089 435.785C827.312 435.785 828.304 434.793 828.304 433.57C828.304 432.346 827.312 431.354 826.089 431.354C824.865 431.354 823.873 432.346 823.873 433.57C823.873 434.793 824.865 435.785 826.089 435.785Z" fill="#001949"/>
<path d="M727.291 413.633H705.139V457.937H727.291V413.633Z" fill="#001949" stroke="white" stroke-width="2" stroke-linecap="round" stroke-linejoin="round"/>
<path d="M755.646 413.633H733.494V457.937H755.646V413.633Z" fill="#001949" stroke="white" stroke-width="2" stroke-linecap="round" stroke-linejoin="round"/>
<path d="M725.519 431.354H706.911" stroke="white" stroke-width="2" stroke-linecap="round" stroke-linejoin="round"/>
<path d="M714 436.671H718.43" stroke="white" stroke-width="2" stroke-linecap="round" stroke-linejoin="round"/>
<path d="M720.646 421.165V425.595" stroke="white" stroke-width="2" stroke-linecap="round" stroke-linejoin="round"/>
<path d="M716.215 446.418C717.439 446.418 718.43 445.426 718.43 444.203C718.43 442.979 717.439 441.987 716.215 441.987C714.992 441.987 714 442.979 714 444.203C714 445.426 714.992 446.418 716.215 446.418Z" fill="#001949"/>
<path d="M753.873 431.354H735.266" stroke="white" stroke-width="2" stroke-linecap="round" stroke-linejoin="round"/>
<path d="M742.354 436.671H746.785" stroke="white" stroke-width="2" stroke-linecap="round" stroke-linejoin="round"/>
<path d="M749 421.165V425.595" stroke="white" stroke-width="2" stroke-linecap="round" stroke-linejoin="round"/>
<path d="M744.57 446.418C745.793 446.418 746.785 445.426 746.785 444.203C746.785 442.979 745.793 441.987 744.57 441.987C743.346 441.987 742.354 442.979 742.354 444.203C742.354 445.426 743.346 446.418 744.57 446.418Z" fill="#001949"/>
<path d="M931.089 384.392H886.785V473H931.089V384.392Z" fill="#001949" stroke="white" stroke-width="2" stroke-linecap="round" stroke-linejoin="round"/>
<path d="M975.392 384.393H931.089V473H975.392V384.393Z" fill="#001949" stroke="white" stroke-width="2" stroke-linecap="round" stroke-linejoin="round"/>
<path d="M923.557 435.785C924.78 435.785 925.772 434.793 925.772 433.57C925.772 432.346 924.78 431.354 923.557 431.354C922.334 431.354 921.342 432.346 921.342 433.57C921.342 434.793 922.334 435.785 923.557 435.785Z" fill="white"/>
<path d="M939.506 435.785C940.73 435.785 941.722 434.793 941.722 433.57C941.722 432.346 940.73 431.354 939.506 431.354C938.283 431.354 937.291 432.346 937.291 433.57C937.291 434.793 938.283 435.785 939.506 435.785Z" fill="white"/>
<path d="M840.266 219.864C827.368 222.525 817.671 233.947 817.671 247.633C817.671 249.45 817.842 251.227 818.169 252.949" stroke="white" stroke-width="2" stroke-linecap="round" stroke-linejoin="round"/>
<path d="M837.608 206.839C818.643 210.731 804.38 227.517 804.38 247.633C804.38 250.205 804.613 252.722 805.059 255.165" stroke="white" stroke-width="2" stroke-linecap="round" stroke-linejoin="round"/>
<path d="M834.506 193C809.203 198.308 790.203 220.752 790.203 247.633C790.203 251.425 790.581 255.129 791.301 258.709" stroke="white" stroke-width="2" stroke-linecap="round" stroke-linejoin="round"/>
<path d="M558.821 239.102C571.353 241.687 580.775 252.785 580.775 266.083C580.775 267.848 580.609 269.575 580.291 271.248" stroke="white" stroke-width="2" stroke-linecap="round" stroke-linejoin="round"/>
<path d="M561.404 226.446C579.831 230.228 593.689 246.537 593.689 266.082C593.689 268.581 593.462 271.027 593.029 273.4" stroke="white" stroke-width="2" stroke-linecap="round" stroke-linejoin="round"/>
<path d="M564.417 213C589.002 218.158 607.464 239.964 607.464 266.082C607.464 269.767 607.096 273.366 606.396 276.844" stroke="white" stroke-width="2" stroke-linecap="round" stroke-linejoin="round"/>
<path d="M291.073 282.015L319.914 273.404L348.755 282.015V335.404H291.073V282.015Z" fill="#001949" stroke="white" stroke-width="2" stroke-linecap="round" stroke-linejoin="round"/>
<path d="M416 264.423L465.5 245L515 264.423V335H416V264.423Z" fill="#001949" stroke="white" stroke-width="2" stroke-linecap="round" stroke-linejoin="round"/>
<path d="M529.119 269.884L514.914 264.177V335.177H529.119V269.884Z" fill="#001949" stroke="white" stroke-width="2" stroke-linecap="round" stroke-linejoin="round"/>
<rect width="44.7682" height="99.8675" transform="matrix(-1 0 0 1 607.894 373.133)" fill="#001949" stroke="white" stroke-width="2" stroke-linecap="round" stroke-linejoin="round"/>
<path d="M284.185 335.252H560.113L582.927 373.132H242L284.185 335.252Z" fill="#001949" stroke="white" stroke-width="2" stroke-linecap="round" stroke-linejoin="round"/>
<path d="M284.185 335H560.113L582.927 373H242L284.185 335Z" fill="#001949" stroke="white" stroke-width="2" stroke-linecap="round" stroke-linejoin="round"/>
<path d="M609.616 349.887L560.113 335.252L582.927 373.132L631.139 386.477L609.616 349.887Z" fill="#001949" stroke="white" stroke-width="2" stroke-linecap="round" stroke-linejoin="round"/>
<rect x="380.609" y="373.133" width="182.517" height="99.8675" fill="#001949" stroke="white" stroke-width="2" stroke-linecap="round" stroke-linejoin="round"/>
<path d="M405.576 401.543L465.841 396.377L526.106 401.543V473H405.576V401.543Z" fill="#001949" stroke="white" stroke-width="2" stroke-linecap="round" stroke-linejoin="round"/>
<rect x="321.205" y="373.133" width="59.404" height="99.8675" fill="#001949" stroke="white" stroke-width="2" stroke-linecap="round" stroke-linejoin="round"/>
<rect x="334.119" y="392.073" width="33.5762" height="66.2914" fill="#001949" stroke="white" stroke-width="2" stroke-linecap="round" stroke-linejoin="round"/>
<rect x="348.755" y="281.013" width="67.1523" height="54" fill="#001949" stroke="white" stroke-width="2" stroke-linecap="round" stroke-linejoin="round"/>
<rect x="348.755" y="281.013" width="67.1523" height="15.4967" fill="#001949" stroke="white" stroke-width="2" stroke-linecap="round" stroke-linejoin="round"/>
<rect x="439.152" y="275.848" width="51.6556" height="35.298" fill="#001949" stroke="white" stroke-width="2" stroke-linecap="round" stroke-linejoin="round"/>
<rect x="301.404" y="288.762" width="36.1589" height="22.3841" fill="#001949" stroke="white" stroke-width="2" stroke-linecap="round" stroke-linejoin="round"/>
<path d="M281.603 273.552L319.914 262.073L358.225 273.552" stroke="white" stroke-width="2" stroke-linecap="round" stroke-linejoin="round"/>
<path d="M396.106 263.186L465.411 236.245L534.715 263.186" stroke="white" stroke-width="2" stroke-linecap="round" stroke-linejoin="round"/>
<path d="M359.517 425.649C360.705 425.649 361.669 424.685 361.669 423.497C361.669 422.308 360.705 421.344 359.517 421.344C358.328 421.344 357.364 422.308 357.364 423.497C357.364 424.685 358.328 425.649 359.517 425.649Z" fill="white"/>
<rect x="261.801" y="373.133" width="59.404" height="99.8675" fill="#001949" stroke="white" stroke-width="2" stroke-linecap="round" stroke-linejoin="round"/>
<rect x="254.914" y="458.364" width="125.695" height="14.6358" fill="#001949" stroke="white" stroke-width="2" stroke-linecap="round" stroke-linejoin="round"/>
<line x1="416.907" y1="455.642" x2="513.914" y2="455.642" stroke="white" stroke-width="2" stroke-linecap="round" stroke-linejoin="round"/>
<line x1="416.907" y1="434.119" x2="513.914" y2="434.119" stroke="white" stroke-width="2" stroke-linecap="round" stroke-linejoin="round"/>
<line x1="416.907" y1="413.457" x2="513.914" y2="413.457" stroke="white" stroke-width="2" stroke-linecap="round" stroke-linejoin="round"/>
<line x1="440.152" y1="317.894" x2="489.808" y2="317.894" stroke="white" stroke-width="2" stroke-linecap="round" stroke-linejoin="round"/>
<line x1="464.841" y1="310.146" x2="464.841" y2="276.848" stroke="white" stroke-width="2" stroke-linecap="round" stroke-linejoin="round"/>
<line x1="406.576" y1="384.185" x2="525.106" y2="384.185" stroke="white" stroke-width="2" stroke-linecap="round" stroke-linejoin="round"/>
<line x1="302.404" y1="320.477" x2="336.563" y2="320.477" stroke="white" stroke-width="2" stroke-linecap="round" stroke-linejoin="round"/>
<line x1="318.483" y1="310.146" x2="318.483" y2="289.762" stroke="white" stroke-width="2" stroke-linecap="round" stroke-linejoin="round"/>
<path d="M217.668 463.047L208.989 451.429L208.009 449.469V460.108C210.669 465.287 215.988 474.525 217.668 478.585C219.067 481.944 224.806 495.662 226.626 500.701C227.466 503.081 226.206 505.6 223.827 506.44C221.447 507.14 218.927 505.74 218.227 503.501C216.688 498.741 211.369 485.723 209.969 482.644C208.989 480.264 206.329 475.225 204.09 471.026C203.11 476.345 201.43 481.384 200.17 484.604C198.911 487.823 191.912 500.561 188.972 504.481C187.572 506.44 184.633 506.86 182.673 505.46C180.853 504.061 180.433 501.401 181.833 499.581C184.493 495.802 190.932 486.003 192.472 481.664C194.291 476.765 196.391 461.227 196.391 461.227V442.61L192.472 448.489C192.472 448.489 189.672 458.148 188.832 461.367C188.412 462.907 187.012 464.027 185.333 464.027C185.053 464.027 184.633 464.027 184.353 463.887C182.393 463.327 181.413 461.367 181.833 459.408C181.973 458.988 184.213 448.909 185.613 445.69C187.152 442.33 193.451 433.092 193.451 433.092C194.011 432.252 195.551 430.712 196.391 430.152C198.211 428.892 203.95 428.752 206.049 430.152C207.029 430.852 208.429 432.952 208.989 434.072L214.868 447.649L222.707 457.308C227.046 462.347 221.307 466.966 217.668 463.047Z" fill="#001949" stroke="white" stroke-width="2" stroke-linecap="round" stroke-linejoin="round"/>
<path d="M201.85 425.673C205.87 425.673 209.129 422.414 209.129 418.394C209.129 414.374 205.87 411.115 201.85 411.115C197.83 411.115 194.571 414.374 194.571 418.394C194.571 422.414 197.83 425.673 201.85 425.673Z" stroke="white" stroke-width="2" stroke-linecap="round" stroke-linejoin="round"/>
<path d="M200.87 419.794C202.185 419.794 203.25 418.728 203.25 417.414C203.25 416.1 202.185 415.034 200.87 415.034C199.556 415.034 198.491 416.1 198.491 417.414C198.491 418.728 199.556 419.794 200.87 419.794Z" fill="white"/>
<path d="M200.451 416.434C198.631 407.616 202.41 403.556 204.37 410.555" stroke="white" stroke-width="2" stroke-linecap="round" stroke-linejoin="round"/>
<path d="M222.987 463.747L266.24 507" stroke="white" stroke-width="2" stroke-linecap="round" stroke-linejoin="round"/>
<path d="M1125.57 463.047L1134.25 451.429L1135.23 449.469V460.108C1132.57 465.287 1127.25 474.525 1125.57 478.585C1124.17 481.944 1118.43 495.662 1116.61 500.701C1115.77 503.081 1117.03 505.6 1119.41 506.44C1121.79 507.14 1124.31 505.74 1125.01 503.501C1126.55 498.741 1131.87 485.723 1133.27 482.644C1134.25 480.264 1136.91 475.225 1139.15 471.026C1140.13 476.345 1141.81 481.384 1143.07 484.604C1144.33 487.823 1151.33 500.561 1154.27 504.481C1155.67 506.44 1158.61 506.86 1160.57 505.46C1162.39 504.061 1162.81 501.401 1161.41 499.581C1158.75 495.802 1152.31 486.003 1150.77 481.664C1148.95 476.765 1146.85 461.227 1146.85 461.227V442.61L1150.77 448.489C1150.77 448.489 1153.57 458.148 1154.41 461.367C1154.83 462.907 1156.23 464.027 1157.91 464.027C1158.19 464.027 1158.61 464.027 1158.89 463.887C1160.85 463.327 1161.83 461.367 1161.41 459.408C1161.27 458.988 1159.03 448.909 1157.63 445.69C1156.09 442.33 1149.79 433.092 1149.79 433.092C1149.23 432.252 1147.69 430.712 1146.85 430.152C1145.03 428.892 1139.29 428.752 1137.19 430.152C1136.21 430.852 1134.81 432.952 1134.25 434.072L1128.37 447.649L1120.53 457.308C1116.19 462.347 1121.93 466.966 1125.57 463.047Z" fill="#001949" stroke="white" stroke-width="2" stroke-linecap="round" stroke-linejoin="round"/>
<path d="M1141.39 425.673C1137.37 425.673 1134.11 422.414 1134.11 418.394C1134.11 414.374 1137.37 411.115 1141.39 411.115C1145.41 411.115 1148.67 414.374 1148.67 418.394C1148.67 422.414 1145.41 425.673 1141.39 425.673Z" stroke="white" stroke-width="2" stroke-linecap="round" stroke-linejoin="round"/>
<path d="M1142.37 419.794C1141.06 419.794 1139.99 418.728 1139.99 417.414C1139.99 416.1 1141.06 415.034 1142.37 415.034C1143.68 415.034 1144.75 416.1 1144.75 417.414C1144.75 418.728 1143.68 419.794 1142.37 419.794Z" fill="white"/>
<path d="M1142.79 416.434C1144.61 407.616 1140.83 403.556 1138.87 410.555" stroke="white" stroke-width="2" stroke-linecap="round" stroke-linejoin="round"/>
<mask id="path-101-outside-1_155_296" maskUnits="userSpaceOnUse" x="1078" y="462.926" width="65" height="45" fill="black">
<rect fill="white" x="1078" y="462.926" width="65" height="45"/>
<path fill-rule="evenodd" clip-rule="evenodd" d="M1101.68 473.631V473.581L1094.89 466.004C1094.63 465.743 1094.37 465.482 1094.11 465.482L1090.45 464.959C1088.36 464.698 1086.01 466.004 1085.49 468.095V468.356L1080 469.662L1081.31 472.013C1082.09 473.058 1083.4 473.842 1084.7 473.842H1088.62C1089.14 473.842 1089.67 474.365 1089.93 474.887L1091.5 483.5L1091.54 483.509H1091.5L1094.63 487.689C1095.15 488.473 1095.68 489.518 1095.94 490.563L1096.98 495.788V502.842L1094.63 504.148C1094.37 504.409 1094.11 504.671 1094.11 504.932C1094.11 505.454 1094.37 505.716 1094.89 505.716H1097.24C1097.77 505.716 1098.55 505.193 1098.55 504.671L1099.59 500.229L1100.9 493.175V492.914V491.869L1108.22 491.869C1109.26 491.869 1110.31 491.608 1111.09 491.347L1117.1 488.995C1119.19 488.212 1121.8 488.995 1122.85 491.085L1123.11 491.608C1124.15 493.437 1125.72 495.004 1127.55 496.049L1128.33 496.572C1130.42 497.878 1131.73 499.968 1131.73 502.581V502.842L1130.68 503.626L1130.68 503.626C1130.42 503.887 1130.16 504.148 1130.16 504.41C1130.16 504.932 1130.68 505.455 1131.21 505.455H1133.04C1133.82 505.455 1134.34 504.932 1134.34 504.148V499.446C1134.34 498.139 1133.82 496.833 1133.3 495.527L1133.04 495.266C1132.25 493.959 1131.73 492.392 1131.73 490.563V485.077L1138.26 491.869C1138.52 492.131 1139.31 492.131 1139.57 491.869C1140.09 491.347 1140.09 490.824 1139.83 490.302L1132.51 478.545C1131.21 476.455 1129.12 475.41 1126.5 475.41H1109.26H1103.5L1101.68 473.631Z"/>
</mask>
<path fill-rule="evenodd" clip-rule="evenodd" d="M1101.68 473.631V473.581L1094.89 466.004C1094.63 465.743 1094.37 465.482 1094.11 465.482L1090.45 464.959C1088.36 464.698 1086.01 466.004 1085.49 468.095V468.356L1080 469.662L1081.31 472.013C1082.09 473.058 1083.4 473.842 1084.7 473.842H1088.62C1089.14 473.842 1089.67 474.365 1089.93 474.887L1091.5 483.5L1091.54 483.509H1091.5L1094.63 487.689C1095.15 488.473 1095.68 489.518 1095.94 490.563L1096.98 495.788V502.842L1094.63 504.148C1094.37 504.409 1094.11 504.671 1094.11 504.932C1094.11 505.454 1094.37 505.716 1094.89 505.716H1097.24C1097.77 505.716 1098.55 505.193 1098.55 504.671L1099.59 500.229L1100.9 493.175V492.914V491.869L1108.22 491.869C1109.26 491.869 1110.31 491.608 1111.09 491.347L1117.1 488.995C1119.19 488.212 1121.8 488.995 1122.85 491.085L1123.11 491.608C1124.15 493.437 1125.72 495.004 1127.55 496.049L1128.33 496.572C1130.42 497.878 1131.73 499.968 1131.73 502.581V502.842L1130.68 503.626L1130.68 503.626C1130.42 503.887 1130.16 504.148 1130.16 504.41C1130.16 504.932 1130.68 505.455 1131.21 505.455H1133.04C1133.82 505.455 1134.34 504.932 1134.34 504.148V499.446C1134.34 498.139 1133.82 496.833 1133.3 495.527L1133.04 495.266C1132.25 493.959 1131.73 492.392 1131.73 490.563V485.077L1138.26 491.869C1138.52 492.131 1139.31 492.131 1139.57 491.869C1140.09 491.347 1140.09 490.824 1139.83 490.302L1132.51 478.545C1131.21 476.455 1129.12 475.41 1126.5 475.41H1109.26H1103.5L1101.68 473.631Z" fill="#001949"/>
<path d="M1101.68 473.631H1099.68C1099.68 474.168 1099.9 474.683 1100.28 475.059L1101.68 473.631ZM1101.68 473.581H1103.68C1103.68 473.088 1103.5 472.613 1103.17 472.246L1101.68 473.581ZM1094.89 466.004L1096.38 464.669C1096.36 464.642 1096.33 464.616 1096.31 464.59L1094.89 466.004ZM1094.11 465.482L1093.83 467.462C1093.92 467.475 1094.01 467.482 1094.11 467.482V465.482ZM1090.45 464.959L1090.73 462.979C1090.72 462.978 1090.71 462.976 1090.7 462.975L1090.45 464.959ZM1085.49 468.095L1083.55 467.609C1083.51 467.768 1083.49 467.931 1083.49 468.095H1085.49ZM1085.49 468.356L1085.95 470.301C1086.85 470.087 1087.49 469.282 1087.49 468.356H1085.49ZM1080 469.662L1079.54 467.716C1078.93 467.861 1078.42 468.283 1078.17 468.856C1077.92 469.428 1077.95 470.086 1078.25 470.633L1080 469.662ZM1081.31 472.013L1079.56 472.985C1079.6 473.064 1079.65 473.141 1079.71 473.213L1081.31 472.013ZM1089.93 474.887L1091.9 474.528C1091.86 474.342 1091.8 474.162 1091.72 473.993L1089.93 474.887ZM1091.5 483.5L1089.53 483.859C1089.67 484.635 1090.26 485.254 1091.02 485.442L1091.5 483.5ZM1091.54 483.509V485.509C1092.55 485.509 1093.4 484.753 1093.52 483.749C1093.64 482.744 1092.99 481.808 1092.01 481.566L1091.54 483.509ZM1091.5 483.509V481.509C1090.74 481.509 1090.05 481.937 1089.71 482.614C1089.37 483.292 1089.44 484.103 1089.9 484.709L1091.5 483.509ZM1094.63 487.689L1096.29 486.579C1096.27 486.549 1096.25 486.518 1096.23 486.489L1094.63 487.689ZM1095.94 490.563L1097.9 490.17C1097.89 490.139 1097.88 490.108 1097.88 490.078L1095.94 490.563ZM1096.98 495.788H1098.98C1098.98 495.656 1098.97 495.525 1098.94 495.396L1096.98 495.788ZM1096.98 502.842L1097.95 504.59C1098.59 504.237 1098.98 503.568 1098.98 502.842H1096.98ZM1094.63 504.148L1093.66 502.4C1093.5 502.49 1093.35 502.603 1093.22 502.734L1094.63 504.148ZM1098.55 504.671L1096.6 504.213C1096.57 504.363 1096.55 504.516 1096.55 504.671H1098.55ZM1099.59 500.229L1101.54 500.687C1101.55 500.656 1101.56 500.625 1101.56 500.593L1099.59 500.229ZM1100.9 493.175L1102.87 493.539C1102.89 493.419 1102.9 493.297 1102.9 493.175H1100.9ZM1100.9 491.869L1100.9 489.869C1099.8 489.869 1098.9 490.765 1098.9 491.869H1100.9ZM1108.22 491.869L1108.22 489.869L1108.22 489.869L1108.22 491.869ZM1111.09 491.347L1111.72 493.244C1111.75 493.233 1111.79 493.222 1111.82 493.209L1111.09 491.347ZM1117.1 488.995L1116.4 487.123C1116.39 487.126 1116.38 487.129 1116.37 487.133L1117.1 488.995ZM1122.85 491.085L1121.06 491.98L1121.06 491.98L1122.85 491.085ZM1123.11 491.608L1121.32 492.502C1121.34 492.536 1121.35 492.568 1121.37 492.6L1123.11 491.608ZM1127.55 496.049L1128.66 494.385C1128.62 494.36 1128.58 494.336 1128.54 494.313L1127.55 496.049ZM1128.33 496.572L1127.22 498.236C1127.24 498.247 1127.26 498.258 1127.27 498.268L1128.33 496.572ZM1131.73 502.842L1132.93 504.442C1133.43 504.064 1133.73 503.472 1133.73 502.842H1131.73ZM1130.68 503.626L1129.48 502.026C1129.41 502.083 1129.34 502.145 1129.27 502.212L1130.68 503.626ZM1130.68 503.626L1129.27 502.212L1129.27 502.212L1130.68 503.626ZM1133.3 495.527L1135.15 494.784C1135.05 494.533 1134.9 494.304 1134.71 494.113L1133.3 495.527ZM1133.04 495.266L1131.32 496.295C1131.4 496.435 1131.51 496.564 1131.62 496.68L1133.04 495.266ZM1131.73 485.077L1133.17 483.69C1132.61 483.102 1131.74 482.916 1130.98 483.221C1130.23 483.526 1129.73 484.26 1129.73 485.077H1131.73ZM1138.26 491.869L1136.82 493.255C1136.83 493.265 1136.84 493.274 1136.85 493.283L1138.26 491.869ZM1139.57 491.869L1140.98 493.283L1140.98 493.283L1139.57 491.869ZM1139.83 490.302L1141.62 489.407C1141.59 489.352 1141.56 489.298 1141.53 489.245L1139.83 490.302ZM1132.51 478.545L1134.21 477.488L1134.21 477.485L1132.51 478.545ZM1103.5 475.41L1102.1 476.838C1102.47 477.205 1102.98 477.41 1103.5 477.41V475.41ZM1103.68 473.631V473.581H1099.68V473.631H1103.68ZM1103.17 472.246L1096.38 464.669L1093.4 467.34L1100.2 474.916L1103.17 472.246ZM1096.31 464.59C1096.2 464.486 1095.97 464.245 1095.7 464.045C1095.45 463.861 1094.89 463.482 1094.11 463.482V467.482C1093.84 467.482 1093.63 467.413 1093.5 467.359C1093.38 467.307 1093.31 467.255 1093.3 467.245C1093.28 467.234 1093.29 467.237 1093.33 467.272C1093.37 467.307 1093.41 467.349 1093.48 467.419L1096.31 464.59ZM1094.39 463.502L1090.73 462.979L1090.17 466.939L1093.83 467.462L1094.39 463.502ZM1090.7 462.975C1087.81 462.613 1084.36 464.354 1083.55 467.609L1087.43 468.58C1087.66 467.655 1088.92 466.783 1090.2 466.944L1090.7 462.975ZM1083.49 468.095V468.356H1087.49V468.095H1083.49ZM1085.02 466.41L1079.54 467.716L1080.46 471.608L1085.95 470.301L1085.02 466.41ZM1078.25 470.633L1079.56 472.985L1083.05 471.042L1081.75 468.691L1078.25 470.633ZM1079.71 473.213C1080.79 474.654 1082.64 475.842 1084.7 475.842V471.842C1084.15 471.842 1083.39 471.463 1082.91 470.813L1079.71 473.213ZM1084.7 475.842H1088.62V471.842H1084.7V475.842ZM1088.62 475.842C1088.42 475.842 1088.27 475.791 1088.19 475.755C1088.11 475.719 1088.07 475.688 1088.07 475.687C1088.07 475.685 1088.08 475.696 1088.1 475.72C1088.12 475.745 1088.13 475.767 1088.14 475.782L1091.72 473.993C1091.48 473.515 1091.12 473.035 1090.67 472.65C1090.25 472.285 1089.54 471.842 1088.62 471.842V475.842ZM1087.96 475.246L1089.53 483.859L1093.47 483.141L1091.9 474.528L1087.96 475.246ZM1091.02 485.442L1091.06 485.451L1092.01 481.566L1091.98 481.558L1091.02 485.442ZM1091.54 481.509H1091.5V485.509H1091.54V481.509ZM1089.9 484.709L1093.03 488.889L1096.23 486.489L1093.1 482.309L1089.9 484.709ZM1092.97 488.798C1093.39 489.439 1093.8 490.275 1094 491.048L1097.88 490.078C1097.55 488.76 1096.91 487.506 1096.29 486.579L1092.97 488.798ZM1093.98 490.955L1095.02 496.18L1098.94 495.396L1097.9 490.17L1093.98 490.955ZM1094.98 495.788V502.842H1098.98V495.788H1094.98ZM1096.01 501.094L1093.66 502.4L1095.6 505.896L1097.95 504.59L1096.01 501.094ZM1093.22 502.734C1093.11 502.838 1092.87 503.073 1092.67 503.34C1092.49 503.586 1092.11 504.149 1092.11 504.932H1096.11C1096.11 505.204 1096.04 505.414 1095.99 505.538C1095.93 505.657 1095.88 505.727 1095.87 505.74C1095.86 505.755 1095.86 505.749 1095.9 505.712C1095.93 505.674 1095.98 505.632 1096.04 505.562L1093.22 502.734ZM1092.11 504.932C1092.11 505.501 1092.25 506.296 1092.89 506.934C1093.53 507.572 1094.32 507.716 1094.89 507.716V503.716C1094.94 503.716 1095.34 503.729 1095.72 504.106C1096.09 504.482 1096.11 504.885 1096.11 504.932H1092.11ZM1094.89 507.716H1097.24V503.716H1094.89V507.716ZM1097.24 507.716C1098.07 507.716 1098.8 507.356 1099.29 506.989C1099.72 506.665 1100.55 505.885 1100.55 504.671H1096.55C1096.55 504.298 1096.69 504.047 1096.75 503.945C1096.83 503.839 1096.88 503.795 1096.89 503.789C1096.9 503.78 1096.92 503.772 1096.94 503.762C1096.96 503.756 1097.06 503.716 1097.24 503.716V507.716ZM1100.5 505.129L1101.54 500.687L1097.65 499.771L1096.6 504.213L1100.5 505.129ZM1101.56 500.593L1102.87 493.539L1098.93 492.811L1097.63 499.865L1101.56 500.593ZM1102.9 493.175V492.914H1098.9V493.175H1102.9ZM1102.9 492.914V491.869H1098.9V492.914H1102.9ZM1100.9 493.869L1108.22 493.869L1108.22 489.869L1100.9 489.869L1100.9 493.869ZM1108.22 493.869C1109.56 493.869 1110.84 493.539 1111.72 493.244L1110.46 489.449C1109.77 489.677 1108.96 489.869 1108.22 489.869V493.869ZM1111.82 493.209L1117.83 490.858L1116.37 487.133L1110.36 489.484L1111.82 493.209ZM1117.8 490.868C1119.08 490.388 1120.54 490.94 1121.06 491.98L1124.64 490.191C1123.07 487.051 1119.3 486.035 1116.4 487.123L1117.8 490.868ZM1121.06 491.98L1121.32 492.502L1124.9 490.714L1124.64 490.191L1121.06 491.98ZM1121.37 492.6C1122.59 494.739 1124.42 496.564 1126.56 497.786L1128.54 494.313C1127.02 493.445 1125.71 492.134 1124.84 490.616L1121.37 492.6ZM1126.44 497.714L1127.22 498.236L1129.44 494.908L1128.66 494.385L1126.44 497.714ZM1127.27 498.268C1128.83 499.242 1129.73 500.718 1129.73 502.581H1133.73C1133.73 499.219 1132.02 496.515 1129.39 494.876L1127.27 498.268ZM1129.73 502.581V502.842H1133.73V502.581H1129.73ZM1130.53 501.242L1129.48 502.026L1131.88 505.226L1132.93 504.442L1130.53 501.242ZM1129.27 502.212L1129.27 502.212L1132.1 505.04L1132.1 505.04L1129.27 502.212ZM1129.27 502.212C1129.17 502.316 1128.92 502.551 1128.73 502.818C1128.54 503.063 1128.16 503.627 1128.16 504.41H1132.16C1132.16 504.682 1132.09 504.891 1132.04 505.015C1131.99 505.135 1131.93 505.205 1131.93 505.218C1131.91 505.233 1131.92 505.227 1131.95 505.19C1131.99 505.152 1132.03 505.11 1132.1 505.04L1129.27 502.212ZM1128.16 504.41C1128.16 505.321 1128.6 506.066 1129.07 506.542C1129.55 507.019 1130.3 507.455 1131.21 507.455V503.455C1131.6 503.455 1131.82 503.629 1131.9 503.714C1131.99 503.799 1132.16 504.021 1132.16 504.41H1128.16ZM1131.21 507.455H1133.04V503.455H1131.21V507.455ZM1133.04 507.455C1133.88 507.455 1134.74 507.164 1135.4 506.51C1136.05 505.856 1136.34 504.995 1136.34 504.148H1132.34C1132.34 504.086 1132.37 503.878 1132.57 503.681C1132.77 503.484 1132.97 503.455 1133.04 503.455V507.455ZM1136.34 504.148V499.446H1132.34V504.148H1136.34ZM1136.34 499.446C1136.34 497.683 1135.64 496.005 1135.15 494.784L1131.44 496.27C1132 497.661 1132.34 498.596 1132.34 499.446H1136.34ZM1134.71 494.113L1134.45 493.851L1131.62 496.68L1131.88 496.941L1134.71 494.113ZM1134.75 494.237C1134.13 493.208 1133.73 491.993 1133.73 490.563H1129.73C1129.73 492.791 1130.37 494.711 1131.32 496.295L1134.75 494.237ZM1133.73 490.563V485.077H1129.73V490.563H1133.73ZM1130.29 486.463L1136.82 493.255L1139.7 490.483L1133.17 483.69L1130.29 486.463ZM1136.85 493.283C1137.24 493.679 1137.7 493.856 1137.99 493.939C1138.31 494.031 1138.63 494.065 1138.91 494.065C1139.2 494.065 1139.52 494.031 1139.84 493.939C1140.13 493.856 1140.59 493.679 1140.98 493.283L1138.15 490.455C1138.42 490.191 1138.68 490.112 1138.74 490.093C1138.83 490.067 1138.89 490.065 1138.91 490.065C1138.94 490.065 1139 490.067 1139.09 490.093C1139.15 490.112 1139.41 490.191 1139.68 490.455L1136.85 493.283ZM1140.98 493.283C1141.49 492.778 1141.88 492.125 1141.98 491.334C1142.07 490.564 1141.86 489.899 1141.62 489.407L1138.04 491.196C1138.05 491.227 1137.98 491.085 1138.01 490.837C1138.04 490.568 1138.17 490.438 1138.15 490.455L1140.98 493.283ZM1141.53 489.245L1134.21 477.488L1130.81 479.602L1138.13 491.358L1141.53 489.245ZM1134.21 477.485C1132.49 474.736 1129.71 473.41 1126.5 473.41V477.41C1128.52 477.41 1129.92 478.174 1130.82 479.605L1134.21 477.485ZM1126.5 473.41H1109.26V477.41H1126.5V473.41ZM1109.26 473.41H1103.5V477.41H1109.26V473.41ZM1104.9 473.981L1103.08 472.202L1100.28 475.059L1102.1 476.838L1104.9 473.981Z" fill="white" mask="url(#path-101-outside-1_155_296)"/>
<path d="M1117.62 463.392C1117.1 462.869 1116.32 462.869 1115.53 463.392L1103.51 474.365C1103.25 474.365 1103.25 474.626 1102.99 474.887L1098.81 478.806C1098.29 479.067 1097.5 479.329 1096.72 479.329H1091.23C1090.45 479.329 1089.93 480.112 1089.93 480.896C1089.93 481.68 1090.45 482.203 1091.23 482.203H1096.72C1098.03 482.203 1099.33 481.68 1100.38 480.635L1102.47 478.806V490.563C1102.47 491.347 1102.99 491.869 1103.77 491.869C1104.56 491.869 1105.08 491.347 1105.08 490.563V476.194L1117.1 465.221C1118.14 464.698 1118.14 463.914 1117.62 463.392Z" fill="white"/>
<path d="M1175 473H1207.52" stroke="white" stroke-width="2" stroke-linecap="round" stroke-linejoin="round"/>
<path d="M1193.86 420.317H1188.66V473H1193.86V420.317Z" fill="#001949" stroke="white" stroke-width="2" stroke-linecap="round" stroke-linejoin="round"/>
<path d="M1197.76 378.691H1184.76V420.317H1197.76V378.691Z" fill="#001949" stroke="white" stroke-width="2" stroke-linecap="round" stroke-linejoin="round"/>
<path d="M1372 473H1404.52" stroke="white" stroke-width="2" stroke-linecap="round" stroke-linejoin="round"/>
<path d="M1390 350H1385V473H1390V350Z" fill="#001949" stroke="white" stroke-width="2" stroke-linecap="round" stroke-linejoin="round"/>
<path d="M1394 374H1381V450H1394V374Z" fill="#001949" stroke="white" stroke-width="2" stroke-linecap="round" stroke-linejoin="round"/>
<path d="M1420 337H1199V350H1420V337Z" fill="#001949" stroke="white" stroke-width="2" stroke-linecap="round" stroke-linejoin="round"/>
<path d="M1350.55 350.073V446.139H1224V350.073M1224 473V446.342H1350.55V473" stroke="white" stroke-width="2" stroke-linecap="round" stroke-linejoin="round"/>
<path d="M1184.75 332.719C1175.28 334.672 1168.16 343.056 1168.16 353.102C1168.16 354.436 1168.29 355.74 1168.53 357.005" stroke="white" stroke-width="2" stroke-linecap="round" stroke-linejoin="round"/>
<path d="M1182.8 323.158C1168.88 326.015 1158.41 338.336 1158.41 353.102C1158.41 354.99 1158.58 356.838 1158.91 358.631" stroke="white" stroke-width="2" stroke-linecap="round" stroke-linejoin="round"/>
<path d="M1180.52 313C1161.95 316.896 1148 333.371 1148 353.102C1148 355.886 1148.28 358.605 1148.81 361.232" stroke="white" stroke-width="2" stroke-linecap="round" stroke-linejoin="round"/>
<line x1="1242" y1="473" x2="1242" y2="451" stroke="white" stroke-width="2"/>
<line x1="1330" y1="473" x2="1330" y2="451" stroke="white" stroke-width="2"/>
<path d="M1243 430C1243 423.373 1248.37 418 1255 418H1260.33C1266.96 418 1272.33 423.373 1272.33 430V451H1243V430Z" stroke="white" stroke-width="2" stroke-linecap="round" stroke-linejoin="round"/>
<path d="M1272.33 430C1272.33 423.373 1277.71 418 1284.33 418H1289.67C1296.29 418 1301.67 423.373 1301.67 430V451H1272.33V430Z" stroke="white" stroke-width="2" stroke-linecap="round" stroke-linejoin="round"/>
<path d="M1301.67 430C1301.67 423.373 1307.04 418 1313.67 418H1319C1325.63 418 1331 423.373 1331 430V451H1301.67V430Z" stroke="white" stroke-width="2" stroke-linecap="round" stroke-linejoin="round"/>
<rect x="1238" y="440" width="98" height="11" fill="#001949" stroke="white" stroke-width="2"/>
</g>
<defs>
<clipPath id="clip0_155_296">
<rect width="1440" height="600" fill="white"/>
</clipPath>
</defs>
</svg>
