<svg width="1440" height="600" viewBox="0 0 1440 600" fill="none" xmlns="http://www.w3.org/2000/svg">
<g clip-path="url(#clip0_155_707)">
<rect width="1440" height="600" fill="#00225D"/>
<path d="M1940.8 463.973V209.653H1839.04V463.973H1815.28V413.164H1800.03V294.381L1630.42 209.653V294.381H1594.85V413.164H1579.61V294.381H1562.71V260.462H1560.93L1488 209.653L1425.24 260.462V294.381H1408.34V463.973H1388.02V419.893H1377.86V277.49L1343.93 209.653L1310.01 277.49V419.893H1299.85V463.973H1282.82V209.653H1198.08V413.164H1182.84V209.653H1106.48V294.381H1036.98V413.164H991.249V294.381L821.637 209.653V413.164H770.685V294.381H753.792V260.462H719.87V294.381H702.84V260.462H669.055V294.381H601.209V463.973H584.18V413.164H567.287V260.462L494.36 209.653L431.597 260.462V285.043L397.674 268.152V209.653H228.062V294.381H212.818V260.462H178.895V294.381H162.003V260.462H128.08V294.381H58.587V463.973H43.2051V294.381L26.3126 279.138V260.462L-46.614 209.653L-109.377 260.462V413.164H-126.27H-128.055V463.973H-143.3V209.653H-312.912V413.164H-338.32V209.653H-440.087V413.164H-482.388V294.381L-567.262 209.653V413.164H-652L-652 547.153H1984.89L1984.89 463.973H1940.8Z" fill="#001949"/>
<path d="M669.545 403.311H649.953V525H669.545V403.311Z" fill="#001949" stroke="white" stroke-width="2" stroke-linecap="round" stroke-linejoin="round"/>
<path d="M750.395 397.24V273.067H609.114C576.829 273.067 550.615 299.281 550.615 331.566V390.341C550.615 393.101 551.443 395.308 552.822 397.516H750.395V397.24Z" fill="#001949" stroke="white" stroke-width="2" stroke-linecap="round" stroke-linejoin="round"/>
<path d="M552.271 318.597C551.443 322.736 550.891 327.151 550.891 331.566V390.341C550.891 397.515 556.686 403.586 564.136 403.586H750.671V318.597H552.271Z" fill="#001949" stroke="white" stroke-width="2" stroke-linecap="round" stroke-linejoin="round"/>
<path d="M809.171 396.964H692.172V327.427C692.172 297.349 716.455 273.067 746.533 273.067H754.811C784.888 273.067 809.171 297.349 809.171 327.427V396.964Z" fill="#00225D" stroke="white" stroke-width="2" stroke-linecap="round" stroke-linejoin="round"/>
<path d="M867.946 392.825H750.395H550.891C551.995 398.895 557.513 403.31 563.86 403.31H750.395H867.946C870.981 403.31 873.189 400.827 873.189 398.067C873.189 395.308 870.981 392.825 867.946 392.825Z" fill="#001949" stroke="white" stroke-width="2" stroke-linecap="round" stroke-linejoin="round"/>
<path d="M654.368 334.049C646.918 334.049 640.847 340.12 640.847 347.57C640.847 355.021 646.918 361.091 654.368 361.091C661.819 361.091 667.889 355.021 667.889 347.57C667.889 340.12 661.819 334.049 654.368 334.049Z" fill="#001949" stroke="white" stroke-width="2" stroke-linecap="round" stroke-linejoin="round"/>
<path d="M653.622 227.97L653.622 347.889" stroke="white" stroke-width="2" stroke-linecap="round" stroke-linejoin="round"/>
<path d="M623.587 257.181H653.622V235.657H623.587C621.423 235.657 619.799 237.292 619.799 239.472V253.367C619.799 255.274 621.423 257.181 623.587 257.181Z" fill="#001949" stroke="white" stroke-width="2" stroke-linecap="round" stroke-linejoin="round"/>
<path d="M758.167 307.916H855.869V366.433H758.167V307.916Z" fill="#001949" stroke="white" stroke-width="2" stroke-linecap="round" stroke-linejoin="round"/>
<path d="M807.07 329.651L758.167 366.433H855.869L807.07 329.651Z" fill="#001949" stroke="white" stroke-width="2" stroke-linecap="round" stroke-linejoin="round"/>
<path d="M807.07 344.802L758.167 307.916H855.869L807.07 344.802Z" fill="#001949" stroke="white" stroke-width="2" stroke-linecap="round" stroke-linejoin="round"/>
<line x1="1" y1="-1" x2="32.6419" y2="-1" transform="matrix(-1 0 0 1 899.647 323.59)" stroke="white" stroke-width="2" stroke-linecap="round" stroke-linejoin="round"/>
<line x1="1" y1="-1" x2="37.6882" y2="-1" transform="matrix(-1 8.74228e-08 8.74228e-08 1 909.739 350.504)" stroke="white" stroke-width="2" stroke-linecap="round" stroke-linejoin="round"/>
<line x1="1" y1="-1" x2="57.8734" y2="-1" transform="matrix(-1 8.74228e-08 8.74228e-08 1 934.971 337.047)" stroke="white" stroke-width="2" stroke-linecap="round" stroke-linejoin="round"/>
<path d="M556.601 232.689C543.307 235.432 533.312 247.204 533.312 261.311C533.312 263.184 533.488 265.016 533.825 266.791" stroke="white" stroke-width="2" stroke-linecap="round" stroke-linejoin="round"/>
<path d="M553.861 219.263C534.314 223.276 519.613 240.576 519.613 261.311C519.613 263.961 519.853 266.556 520.313 269.074" stroke="white" stroke-width="2" stroke-linecap="round" stroke-linejoin="round"/>
<path d="M550.664 205C524.584 210.471 505 233.604 505 261.311C505 265.22 505.39 269.037 506.132 272.727" stroke="white" stroke-width="2" stroke-linecap="round" stroke-linejoin="round"/>
<rect y="516" width="1440" height="525" fill="#00225D"/>
<path d="M1249 154.257C1244.74 145.743 1236.23 139.849 1226.08 139.849H1225.75C1223.46 121.841 1208.07 107.761 1189.41 107.761C1174.35 107.761 1161.25 116.929 1155.68 130.354C1154.7 130.354 1153.72 130.026 1152.73 130.026C1139.31 130.026 1128.5 140.832 1128.18 153.929H1249V154.257Z" fill="#0F316C"/>
<path d="M1133.42 99.2478C1131.78 99.2478 1130.14 99.5752 1128.83 100.23C1127.52 86.8053 1116.06 76 1101.98 76C1089.87 76 1080.04 83.8584 1076.44 94.6637C1069.57 94.6637 1064 100.23 1064 107.106H1075.46H1088.88H1121.63H1128.83H1145.53C1143.24 102.522 1138.98 99.2478 1133.42 99.2478Z" fill="#0F316C"/>
<path d="M80 206.546C83.9575 198.631 91.8726 193.151 101.31 193.151H101.614C103.745 176.408 118.053 163.318 135.405 163.318C149.409 163.318 161.586 171.842 166.761 184.323C167.674 184.323 168.588 184.019 169.501 184.019C181.982 184.019 192.028 194.065 192.333 206.242H80V206.546Z" fill="#0F316C"/>
<path d="M187.462 155.403C188.984 155.403 190.506 155.707 191.724 156.316C192.942 143.834 203.596 133.788 216.687 133.788C227.95 133.788 237.083 141.095 240.432 151.141C246.825 151.141 252 156.316 252 162.709H241.345H228.864H198.421H191.724H176.198C178.329 158.447 182.287 155.403 187.462 155.403Z" fill="#0F316C"/>
</g>
<defs>
<clipPath id="clip0_155_707">
<rect width="1440" height="600" fill="white"/>
</clipPath>
</defs>
</svg>